<svg xmlns="http://www.w3.org/2000/svg" width="158.018" height="164.752" viewBox="0 0 158.018 164.752"><path fill="none" d="M0 0v45.619l9.922-5.027v-.286l7.589 3.537V35.31l9.922-5.03 11.074 5.162v5.015l9.621 2.69 4.802-2.001V14.95l9.925-5.029 7.182 3.346V5.746L79.01.715l8.971 5.031v7.522l7.184-3.347 9.919 5.029v26.196l4.801 1.999 9.625-2.8v-4.903l11.077-5.162 9.922 5.03v8.532l7.589-3.536v.286l9.92 5.027V0zm27.052 140.237l12.667 5.978 39.291-16.372 39.299 16.376 12.672-5.976-51.971-21.657z"/><path fill="none" d="M0 87.728v39.748l1.317.621L79.01 95.725l77.711 32.379 1.297-.612V87.728L79.01 54.807z"/><path fill="#034EA2" d="M79.01 129.843l-39.291 16.372L79.01 164.75z"/><path d="M119.51 40.345l-9.625 2.8 9.625 4.011 3.277 1.365 7.8 3.25V30.28l-11.077 5.162zm-92.458 99.892l51.958-21.651V95.725L1.317 128.097zm42.985-126.97v8.519l-7.182 3.349V9.921L52.93 14.95v26.196l-4.802 2.001-9.621 4.009-3.807 1.586-7.267 3.028V30.28l-9.922 5.03v20.593l-7.589 3.163V40.592L0 45.619v42.109l79.01-32.921V.715l-8.973 5.031zm17.944 8.518l7.184 3.35V9.921l-7.184 3.347zm52.528 22.057v12.064l7.589 3.162V40.306z" fill="#999"/><path fill="#007DC5" d="M79.01 164.75l.003.002 39.296-18.533-39.299-16.376z"/><path d="M38.507 35.442L27.433 30.28v21.49l7.267-3.028 3.807-1.586 9.621-4.009-9.621-2.69zm24.348-10.307l7.182-3.349v-8.519l-7.182-3.346zM9.922 40.592v18.474l7.589-3.163v-12.06l-7.589-3.537zm138.176 0v18.476l-7.589-3.162V35.31l-9.922-5.03v21.491l-7.8-3.25-3.277-1.365-9.625-4.011-4.801-1.999V14.95l-9.919-5.029v15.214l-7.184-3.35V5.746L79.01.715v54.092l79.008 32.921V45.619zM79.01 118.586l51.971 21.657 25.74-12.139L79.01 95.725z" fill="#4D4D4D"/><path d="M95.805 83.332c-.075 4.911-2.859 4.443-4.638 3.663-3.003-1.315-4.411-4.266-4.496-6.491-1.488-.655-2.975-1.309-4.457-1.963a15.596 15.596 0 0 0 2.498 7.501c1.495 2.285 3.676 4.237 6.507 5.479 1.263.554 3.591 1.425 5.612.667 2.018-.76 3.722-3.142 3.707-9.123-.005-2.734-.482-5.931-1.92-8.875-1.438-2.939-3.838-5.63-7.682-7.322-3.083-1.357-5.161-1.106-6.478-.059-1.32 1.049-1.905 2.879-2.019 4.704 1.479.651 2.97 1.305 4.457 1.965.173-1.446 1.078-3.405 4.295-1.988 1.322.586 4.248 2.069 4.619 7.606-2.361-1.045-4.723-2.079-7.089-3.125 0 1.413-.008 2.827-.008 4.239l7.092 3.122zm12.355 1.532c-.023-.005-.039-.019-.052-.023 0-1.619.008-3.244.013-4.86.005-1.624 0-3.249 0-4.875l-4.377-1.931c-.002 3.866-.013 7.732-.023 11.593-.005 3.859.023 7.736.023 11.603 1.461.637 2.918 1.281 4.377 1.93 0-1.885.013-3.775 0-5.658-.01-1.901-.021-3.791-.021-5.675l.049.023c1.096 2.367 2.199 4.735 3.308 7.118 1.104 2.368 2.199 4.743 3.3 7.104 1.786.792 3.572 1.58 5.351 2.373-1.307-2.682-2.637-5.359-3.962-8.041a2362.545 2362.545 0 0 1-3.926-8.023 1066.31 1066.31 0 0 1 3.733-3.659c1.245-1.214 2.49-2.441 3.733-3.659-1.714-.76-3.426-1.512-5.141-2.27-1.062 1.161-2.124 2.327-3.186 3.476-1.065 1.15-2.137 2.3-3.199 3.454zm25.985 16.704c-.191 1.642-1.026 3.896-3.89 2.629-1.49-.656-2.632-1.95-3.397-3.613-.776-1.678-1.186-3.734-1.181-5.917.002-3.875.869-5.495 1.843-6.086.984-.597 2.096-.171 2.59.045 1.008.443 3.483 1.694 3.875 5.74 1.428.63 2.864 1.256 4.3 1.883a14.307 14.307 0 0 0-1.773-6.341c-1.253-2.254-3.313-4.439-6.604-5.881-.889-.391-3.135-1.25-5.146-.495-2.01.755-3.807 3.141-3.813 9.253-.002 4.555 1.106 8.003 2.782 10.558 1.673 2.554 3.962 4.23 6.333 5.279 3.287 1.449 5.323 1.011 6.576-.226 1.25-1.229 1.704-3.245 1.856-4.915-1.452-.644-2.906-1.277-4.351-1.913zm11.471-5.481c2.333 1.017 4.663 2.041 7.006 3.078v18.727l4.38 1.931V96.629a1449.273 1449.273 0 0 0-15.764-6.984c0 3.877-.008 7.749-.008 11.619 0 3.872.008 7.743.008 11.614 1.459.644 2.918 1.287 4.377 1.935v-9.354l.001-9.372z" fill-rule="evenodd" clip-rule="evenodd" fill="#007DC5"/><path d="M5.019 99.988c2.147-.942 4.29-1.891 6.434-2.834v18.073c1.338-.585 2.679-1.178 4.021-1.768V91.022a2541.928 2541.928 0 0 0-14.461 6.403v22.397c1.33-.585 2.67-1.171 4.006-1.762V99.988zM19.23 89.369v22.435c1.335-.593 2.673-1.177 4.011-1.768v-7.72l3.825-1.69c1.031-.455 2.668-1.285 4.037-2.875 1.366-1.586 2.498-3.944 2.498-7.455 0-2.771-.747-4.249-1.923-4.853-1.173-.602-2.787-.32-4.514.439a3240.374 3240.374 0 0 1-7.934 3.487zm4.012 2.593c1.046-.461 2.093-.916 3.145-1.379.897-.396 2.872-1.394 2.872 1.648 0 2.185-.972 3.509-2.872 4.344-1.052.463-2.099.919-3.145 1.38v-5.993zm20.687 9.605c2.931-1.292 5.083-3.529 6.504-6.316 1.417-2.784 2.113-6.126 2.113-9.599 0-3.47-.69-6.178-2.113-7.678-1.418-1.49-3.57-1.758-6.504-.379-3.359 1.581-5.522 4.263-6.839 7.192-1.313 2.922-1.784 6.109-1.784 8.721 0 2.608.469 5.36 1.784 7.092 1.317 1.735 3.477 2.449 6.839.967zm0-4.401c-1.119.5-2.194.566-2.988-.233-.792-.792-1.302-2.453-1.302-5.4 0-2.577.384-4.643 1.106-6.212.727-1.578 1.799-2.681 3.184-3.323 2.054-.954 3.124-.053 3.678 1.342.552 1.397.604 3.28.604 4.288 0 .959-.057 2.897-.611 4.812-.555 1.905-1.63 3.814-3.671 4.726zm19.119-3.833c1.338-.586 2.673-1.178 4.021-1.768v-3.29c.207-.093.418-.184.634-.281 3.294-1.467 5.313-3.799 6.494-6.227 1.183-2.424 1.549-4.958 1.549-6.835 0-1.823-.361-4.044-1.549-5.444-1.173-1.385-3.199-1.923-6.494-.404-.219.102-.428.2-.634.294 0-1.094 0-2.195.008-3.301-1.348.624-2.686 1.253-4.024 1.872-.005 1.101-.005 2.196-.005 3.29l-.658.309c-3.271 1.533-5.284 3.904-6.465 6.333-1.184 2.429-1.549 4.923-1.549 6.708 0 1.843.369 4.006 1.549 5.349s3.194 1.874 6.465.415c.217-.098.433-.198.658-.299v3.279zm.366-7.844c-.105.049-.211.096-.314.142-3.805 1.708-4.529-.569-4.529-2.943 0-5.145 3.699-6.686 4.529-7.065.104-.047.209-.099.314-.146v10.012zm3.29-1.474V73.973c.103-.045.208-.098.32-.146.822-.371 4.529-2.241 4.529 2.966 0 3.646-1.704 5.815-4.529 7.083-.112.049-.217.092-.32.139z" fill-rule="evenodd" clip-rule="evenodd" fill="#034EA2"/></svg>